<svg id="Ebene_3" xmlns="http://www.w3.org/2000/svg" viewBox="0 0 100 100">
  <defs>
    <style>
      .cls-1{fill:#6a1b9a}
    </style>
  </defs>
  <circle class="cls-1" cx="50" cy="50" r="50"/>
  <path d="M50 5.71C25.54 5.71 5.71 25.54 5.71 50c0 10.01 3.32 19.24 8.92 26.66l70.74-53.32C77.29 12.63 64.45 5.7 50 5.7Z" style="fill:#ffab91;fill-rule:evenodd"/>
  <path d="M85.37 23.34 14.63 76.66C22.71 87.37 35.55 94.3 50 94.3c24.46 0 44.29-19.83 44.29-44.29 0-10.01-3.32-19.24-8.92-26.66Z" style="fill-rule:evenodd;fill:#ff8a65"/>
  <path d="m81.02 31.86-3.88-2.34-15.16 11.43v.42l-.5 3.55 1.19.15c2.6.37 4.42 2.77 4.06 5.37l-1.98 14.13c-.37 2.6-2.77 4.42-5.37 4.06l-23.54-3.31c-1.36-.2-2.57-.98-3.31-2.14l-7.14 5.37c3.55 6.35 8.62 12.34 15.85 17.15 2.16 1.43 4.85 1.83 7.32 1.03 25.52-8.09 34.71-32.46 36.69-46.22.53-3.62-1.33-6.96-4.21-8.68v.02h-.02Z" style="fill:#4a148c"/>
  <path class="cls-1" d="M57.26 40.73c.45-3.26-1.81-6.26-5.05-6.72s-6.26 1.81-6.72 5.05l-.5 3.55 11.77 1.67.5-3.55Z"/>
  <path class="cls-1" d="m31.74 59.94 1.98-14.13c.37-2.6 2.77-4.42 5.37-4.06l1.19.15.5-3.55c.82-5.84 6.24-9.92 12.08-9.1s9.68 5.97 9.12 11.66l15.16-11.43-20.69-12.43c-1.1-.69-2.45-.88-3.71-.53l-27.67 7.41c-3.22.88-5.93 3.55-6.43 7.19-1.27 9.31-.66 24.15 6.7 37.38l7.14-5.37c-.61-.92-.9-2.07-.75-3.22h-.02.01v.02Z"/>
</svg>
