<?xml version="1.0" encoding="utf-8"?>
<!-- Generator: Adobe Illustrator 27.3.1, SVG Export Plug-In . SVG Version: 6.00 Build 0)  -->
<svg version="1.1" id="Ebene_3" xmlns="http://www.w3.org/2000/svg" xmlns:xlink="http://www.w3.org/1999/xlink" x="0px" y="0px"
	 viewBox="0 0 91.8 91.8" style="enable-background:new 0 0 91.8 91.8;" xml:space="preserve">
<style type="text/css">
	.st0{fill-rule:evenodd;clip-rule:evenodd;fill:#4A148C;}
	.st1{fill-rule:evenodd;clip-rule:evenodd;fill:#6A1B9A;}
	.st2{fill:#D81B60;}
	.st3{fill:#FF4081;}
	.st4{fill:#FF8A65;}
	.st5{fill:#FFAB91;}
	.st6{fill:#4A148C;}
	.st7{fill:#6A1B9A;}
</style>
<g id="Flower">
	<path class="st0" d="M78.9,50.5c4.8-1.2,12.9-7.9,12.9-7.9s-7.3-7.8-12.1-9.7c3.5-4.7,3.7-15.4,3.7-15.4S73.1,14.9,67.6,17
		c-0.4-5.1-6-14.3-6-14.3S53,8.6,50.5,12.9C49.3,8.1,42.7,0,42.7,0S34.8,7.3,33,12.1c-4.7-3.5-15.4-3.7-15.4-3.7S14.9,18.7,17,24.2
		c-5.1,0.5-14.3,6-14.3,6s5.9,8.6,10.2,11.1C8.1,42.5,0,49.1,0,49.1s7.3,7.8,12.1,9.7c-3.5,4.7-3.7,15.4-3.7,15.4s10.3,2.7,15.8,0.7
		c0.5,5.2,6,14.3,6,14.3s8.6-5.9,11.1-10.2c1.2,4.8,7.9,12.9,7.9,12.9s7.8-7.3,9.7-12.1c4.7,3.5,15.4,3.7,15.4,3.7
		s2.7-10.3,0.7-15.8c5.2-0.4,14.3-6,14.3-6S83.2,53,78.9,50.5L78.9,50.5z M32.5,56l26.8-20.2C59.3,35.8,32.5,56,32.5,56z"/>
	<path class="st1" d="M73.6,49.8l4.8-1.2c2.9-0.7,7.6-4,10.4-6.1c-2.6-2.6-6.9-6.5-9.9-7.6l-2.4-0.9l1.6-2.1c2.2-2.9,3-9.1,3.3-12.6
		c-2.5-0.5-7.4-1.4-11.2-0.8c-0.7,0.1-1.3,0.3-1.9,0.5l-2.4,0.9l-0.2-2.6C65.4,14,62.8,8.8,61,5.6c-2.9,2.1-7.3,5.8-8.8,8.4
		l-2.5,4.2l-1.2-4.8c-0.7-2.9-4-7.6-6.1-10.4c-2.6,2.6-6.5,6.9-7.6,9.9l-0.9,2.4l-2.1-1.6c-2.9-2.2-9.1-3-12.6-3.3
		c-0.7,3.5-1.6,9.7-0.4,13.1l0.9,2.5l-2.6,0.2c-0.2,0-0.3,0-0.5,0.1c-3.4,0.5-8.4,3.1-11.1,4.6c2.1,2.9,5.8,7.3,8.4,8.8l4.2,2.5
		l-4.8,1.2c-2.9,0.7-7.6,4-10.4,6.1c2.6,2.6,6.9,6.5,9.9,7.6l2.4,0.9L13.7,60c-2.2,2.9-3,9.1-3.3,12.6c2.5,0.5,7.4,1.4,11.2,0.8
		c0.7-0.1,1.4-0.3,1.9-0.5L26,72l0.2,2.6c0.3,3.1,2.9,8.4,4.6,11.6c2.9-2.1,7.3-5.8,8.8-8.3l2.5-4.2l1.2,4.8c0.7,2.9,4,7.6,6.1,10.4
		c2.6-2.6,6.5-6.9,7.6-9.9l0.9-2.4l2.1,1.6c2.9,2.2,9.1,3,12.6,3.3c0.7-3.4,1.7-9.7,0.4-13.1l-0.9-2.4l2.6-0.2c0.2,0,0.3,0,0.5-0.1
		c3.4-0.5,8.4-3.1,11.1-4.6c-2.1-2.9-5.8-7.3-8.3-8.8L73.6,49.8L73.6,49.8z M32.5,56l26.8-20.2C59.3,35.8,32.5,56,32.5,56z"/>
	<path class="st1" d="M78.9,50.5c4.8-1.2,12.9-7.9,12.9-7.9s-7.3-7.8-12.1-9.7c-8.8-3.5-16.2-0.7-16.2-0.7s4.8-4,4.1-15.3
		c-0.4-5.1-6-14.3-6-14.3S53,8.6,50.5,12.9C49.3,8.1,42.7,0,42.7,0S34.8,7.3,33,12.1c-3.5,8.8-0.7,16.2-0.7,16.2s-4-4.8-15.3-4.1
		c-5.1,0.5-14.3,6-14.3,6s5.9,8.6,10.2,11.1C8.1,42.5,0,49.1,0,49.1s7.3,7.8,12.1,9.7c8.8,3.5,16.2,0.7,16.2,0.7s-4.8,4-4.1,15.3
		c0.5,5.2,6,14.3,6,14.3s8.6-5.9,11.1-10.2c1.2,4.8,7.9,12.9,7.9,12.9s7.8-7.3,9.7-12.1c3.5-8.8,0.7-16.2,0.7-16.2s4,4.8,15.3,4.1
		c5.2-0.4,14.3-6,14.3-6S83.2,53,78.9,50.5z M32.5,56l26.8-20.2C59.3,35.8,32.5,56,32.5,56z"/>
	<path class="st0" d="M78.9,50.5c4.8-1.2,12.9-7.9,12.9-7.9s-7.3-7.8-12.1-9.7c-8.8-3.5-16.2-0.7-16.2-0.7s4.8-4,4.1-15.3
		c-0.4-5.1-6-14.3-6-14.3S53,8.6,50.5,12.9C49.3,8.1,42.7,0,42.7,0S34.8,7.3,33,12.1c-3.5,8.8-0.7,16.2-0.7,16.2s-4-4.8-15.3-4.1
		c-5.1,0.5-14.3,6-14.3,6s5.9,8.6,10.2,11.1C8.1,42.5,0,49.1,0,49.1s7.3,7.8,12.1,9.7c8.8,3.5,16.2,0.7,16.2,0.7s-4.8,4-4.1,15.3
		c0.5,5.2,6,14.3,6,14.3s8.6-5.9,11.1-10.2c1.2,4.8,7.9,12.9,7.9,12.9s7.8-7.3,9.7-12.1c3.5-8.8,0.7-16.2,0.7-16.2s4,4.8,15.3,4.1
		c5.2-0.4,14.3-6,14.3-6S83.2,53,78.9,50.5z M32.5,56l26.8-20.2C59.3,35.8,32.5,56,32.5,56z"/>
	<path class="st1" d="M78,52l-3.7-2.1l4.2-1c3-0.8,7.9-4.2,10.8-6.3c-2.6-2.6-7.1-6.7-10.2-7.9c-4.8-1.9-9.2-1.8-12-1.4
		c-1.8,0.3-4.8,1.9-4.8,1.9l-1.5-2.7c0,0,5.8-5.2,5.1-15.4c-0.3-3.2-3-8.7-4.8-11.9c-2.9,2.1-7.5,5.9-9.1,8.6l-2.1,3.7l-1-4.2
		c-0.8-3-4.2-7.9-6.3-10.8c-2.6,2.6-6.7,7.1-7.9,10.2c-3.2,8,0.5,16.7,0.5,16.8l-2.7,1.5c0,0-5.2-5.8-15.4-5.1c-0.2,0-0.3,0-0.5,0.1
		c-3.5,0.5-8.8,3.3-11.4,4.7c2.1,2.9,5.9,7.5,8.6,9.1l3.7,2.1l-4.2,1c-3,0.8-7.9,4.2-10.8,6.3c2.6,2.6,7.1,6.7,10.2,7.9
		c4.8,1.9,9.2,1.8,12,1.4c1.8-0.3,4.8-1.9,4.8-1.9l1.5,2.7c0,0-5.8,5.2-5.1,15.4c0.3,3.2,3,8.7,4.8,11.9c2.9-2.1,7.5-5.9,9.1-8.6
		l2.1-3.7l1,4.2c0.8,3,4.2,7.9,6.3,10.8c2.6-2.6,6.7-7.1,7.9-10.2c3.2-8-0.5-16.7-0.5-16.8l2.7-1.5c0,0,5.2,5.8,15.3,5.1
		c0.2,0,0.3,0,0.5-0.1c3.5-0.5,8.8-3.3,11.4-4.7C84.5,58.2,80.7,53.6,78,52L78,52z M32.5,56l26.8-20.2L32.5,56z"/>
	<path class="st1" d="M64.6,43.1C63,32.7,53.4,25.6,43.1,27.2S25.6,38.4,27.2,48.7s11.2,17.4,21.5,15.9C59,63,66.2,53.4,64.6,43.1z
		 M32.5,56l26.8-20.2L32.5,56z"/>
	<path class="st0" d="M66.4,42.8c-1.7-11.3-12.3-19.1-23.6-17.4S23.7,37.7,25.4,49C27.1,60.3,37.7,68.1,49,66.4
		C60.3,64.7,68.1,54.1,66.4,42.8z M48.7,64.6c-10.3,1.6-20-5.5-21.5-15.9c-1.6-10.3,5.5-20,15.9-21.5c10.3-1.6,20,5.5,21.5,15.9
		C66.2,53.4,59.1,63,48.7,64.6z"/>
	<path class="st2" d="M7.6,31.2c4.1,6.2,11.1,9.7,18.2,9.7c0.4-1.6,1-3.2,1.8-4.6c-3.4-1.5-6.9-2.9-10.5-4c2.8,0.1,7,0.8,11.6,2.1
		c0.7-1.1,1.5-2.1,2.4-3C24.2,26.9,15,26.6,7.6,31.2L7.6,31.2z M39.6,26.2c0-4.8,0.5-9,1.1-11.8c0.1,3.8,0.4,7.5,0.9,11.2
		c1.6-0.3,3.2-0.5,4.9-0.4c2-6.9,0.5-14.5-4.3-20.2c-6.5,5.8-8.7,14.7-6.2,22.6C37.2,27.1,38.4,26.6,39.6,26.2L39.6,26.2z
		 M77.3,40.8c-3.8,0.1-7.5,0.4-11.2,0.9c0.3,1.6,0.5,3.2,0.4,4.9c6.9,2,14.5,0.5,20.2-4.3c-5.8-6.5-14.7-8.7-22.6-6.2
		c0.6,1.1,1.1,2.3,1.5,3.5C70.4,39.6,74.6,40.1,77.3,40.8L77.3,40.8z M14.5,51c3.8-0.1,7.5-0.4,11.2-0.9c-0.3-1.6-0.5-3.2-0.4-4.9
		c-6.9-2-14.5-0.5-20.2,4.3c5.8,6.5,14.7,8.7,22.6,6.2c-0.6-1.1-1.1-2.3-1.5-3.5C21.4,52.2,17.2,51.7,14.5,51L14.5,51z M65.9,50.9
		c-0.4,1.6-1,3.1-1.8,4.6c3.4,1.5,6.9,2.9,10.5,4c-2.8-0.1-7-0.8-11.6-2.1c-0.7,1.1-1.5,2.1-2.4,3c6.9,4.5,16.1,4.9,23.5,0.2
		C80,54.4,73.1,50.9,65.9,50.9L65.9,50.9z M50.9,25.8c1.6,0.4,3.2,1,4.6,1.8c1.5-3.4,2.9-6.9,4-10.5c-0.1,2.8-0.8,7-2.1,11.6
		c1.1,0.7,2.1,1.5,3,2.4c4.5-6.9,4.9-16.1,0.2-23.5C54.4,11.8,50.9,18.7,50.9,25.8L50.9,25.8z M52.2,65.6c0,4.8-0.5,9-1.1,11.8
		c-0.1-3.8-0.4-7.5-0.9-11.2c-1.6,0.3-3.2,0.5-4.9,0.4c-2,6.9-0.5,14.5,4.3,20.2c6.5-5.8,8.7-14.7,6.2-22.6
		C54.6,64.7,53.4,65.2,52.2,65.6L52.2,65.6z M36.3,64.2c-1.5,3.4-2.9,6.9-4,10.5c0.1-2.8,0.8-7,2.1-11.6c-1.1-0.7-2.1-1.5-3-2.4
		c-4.5,6.9-4.9,16.1-0.2,23.5c6.2-4.1,9.7-11.1,9.7-18.2C39.3,65.6,37.7,65,36.3,64.2L36.3,64.2z"/>
	<path class="st3" d="M7.6,31.2c11.9,1.6,16.5,1.9,21.1,3.2c0.7-1.1,1.5-2.1,2.4-3C24.2,26.9,15,26.6,7.6,31.2L7.6,31.2z M39.6,26.2
		c0-4.8,1.1-11.8,1.1-11.8l1.6-9.4c-6.5,5.8-8.7,14.7-6.2,22.6C37.2,27.1,38.4,26.6,39.6,26.2L39.6,26.2z M5.1,49.5
		c4.3,2.7,16.9,1.2,20.6,0.7c-0.3-1.6-0.5-3.2-0.4-4.9C18.4,43.2,10.8,44.6,5.1,49.5z M55.5,27.6c1.5-3.4,5.5-11.7,5.1-20
		c-6.2,4.1-9.7,11.1-9.7,18.2C52.5,26.2,54.1,26.9,55.5,27.6L55.5,27.6z M65.9,50.9c-0.4,1.6-1,3.1-1.8,4.6c3.4,1.5,14.6,6.3,20,5.1
		C80,54.4,73.1,50.9,65.9,50.9L65.9,50.9z M86.7,42.3c-5.8-6.5-14.7-8.7-22.6-6.2c0.6,1.1,1.1,2.3,1.5,3.5
		C70.4,39.6,70,39.3,86.7,42.3z M45.2,66.6c-2,6.9-0.5,14.5,4.3,20.2c2.7-5.2,1.2-16.9,0.7-20.6C48.5,66.4,46.9,66.6,45.2,66.6z
		 M31.5,60.7c-4.5,6.9-4.9,16.1-0.2,23.5c0.9-10.7,1.9-16.5,3.2-21.1C33.3,62.4,32.4,61.6,31.5,60.7L31.5,60.7z"/>
	<path class="st4" d="M59.3,35.8L32.5,56c5.6,7.4,16.1,8.9,23.5,3.3S64.8,43.2,59.3,35.8z M62.2,65.5l5.4,9.2L60.2,67
		c0.4,2.9,0.3,5.9-0.3,8.8c3.5,2.9,6.7,3.2,11.3,3.8c0.7-4.6,1.3-7.8-0.6-11.9C67.8,67.4,64.9,66.7,62.2,65.5z M74.7,24.2L67,31.5
		c2.9-0.4,5.9-0.3,8.8,0.3c2.9-3.5,3.2-6.7,3.8-11.3c-4.6-0.7-7.8-1.3-11.9,0.6c-0.2,3-1,5.9-2.2,8.5C65.5,29.6,74.7,24.2,74.7,24.2
		z M17,67.6l7.8-7.4c-2.9,0.4-5.9,0.3-8.8-0.3c-2.9,3.5-3.2,6.7-3.8,11.3c4.6,0.7,7.8,1.3,11.9-0.6c0.2-3,1-5.9,2.1-8.5
		C26.3,62.2,17,67.6,17,67.6z M31.8,16c-3.5-2.9-6.7-3.2-11.3-3.8c-0.7,4.6-1.3,7.8,0.6,12c3,0.2,5.9,1,8.5,2.1l-5.4-9.2l7.4,7.8
		C31.1,21.9,31.2,19,31.8,16z"/>
	<path class="st5" d="M35.8,32.5c-7.4,5.6-8.9,16.1-3.3,23.5l26.8-20.2C53.7,28.4,43.2,26.9,35.8,32.5z M79.6,20.5
		c-4.6-0.7-7.8-1.3-11.9,0.6c-0.2,3-1,5.9-2.2,8.5C65.5,29.6,76.8,23.8,79.6,20.5L79.6,20.5z M16,60c-2.9,3.5-3.2,6.7-3.8,11.3
		c6.1-3.6,12.6-11,12.6-11C21.9,60.7,19,60.6,16,60z M20.5,12.2c-0.7,4.6-1.3,7.8,0.6,11.9c3,0.2,5.9,1,8.5,2.1
		C29.6,26.3,23.1,13.7,20.5,12.2L20.5,12.2z M60.2,67c0.4,2.9,0.3,5.9-0.3,8.8c3.5,2.9,6.7,3.2,11.3,3.8C68.5,74.5,60.2,67,60.2,67z
		"/>
</g>
<path class="st6" d="M57.6,39l-1.5-0.9l-5.7,4.3v0.2L50.2,44l0.5,0.1c1,0.1,1.7,1,1.5,2l-0.8,5.3c-0.1,1-1,1.7-2,1.5l-8.9-1.2
	c-0.5-0.1-1-0.4-1.2-0.8l-2.7,2c1.3,2.4,3.3,4.7,6,6.5c0.8,0.5,1.8,0.7,2.8,0.4c9.6-3.1,13.1-12.3,13.9-17.5
	C59.4,40.9,58.7,39.7,57.6,39L57.6,39z"/>
<path class="st7" d="M48.7,42.4c0.2-1.2-0.7-2.4-1.9-2.5s-2.4,0.7-2.5,1.9L44,43.1l4.5,0.6L48.7,42.4z"/>
<path class="st7" d="M39,49.7l0.8-5.3c0.1-1,1-1.7,2-1.5l0.5,0.1l0.2-1.3c0.3-2.2,2.4-3.8,4.6-3.4s3.7,2.3,3.5,4.4l5.7-4.3l-7.8-4.7
	c-0.4-0.3-0.9-0.3-1.4-0.2l-10.5,2.8c-1.2,0.3-2.2,1.3-2.4,2.7c-0.5,3.5-0.2,9.1,2.5,14.1l2.7-2C39.1,50.5,39,50.1,39,49.7L39,49.7z
	"/>
</svg>
