<svg xmlns="http://www.w3.org/2000/svg" id="Ebene_3" data-name="Ebene 3" viewBox="0 0 91.79 91.79"><defs><style>.cls-1,.cls-2{fill:#6a1b9a}.cls-1,.cls-3{fill-rule:evenodd}.cls-4{fill:#ff8a65}.cls-5{fill:#d81b60}.cls-6{fill:#ff4081}.cls-3{fill:#4a148c}.cls-8{fill:#ffab91}</style></defs><g id="Flower"><path d="M78.87 50.53c4.82-1.2 12.92-7.86 12.92-7.86s-7.27-7.82-12.1-9.67c3.51-4.68 3.73-15.38 3.73-15.38s-10.34-2.74-15.81-.66c-.45-5.15-5.96-14.3-5.96-14.3s-8.63 5.95-11.12 10.25C49.33 8.09 42.67-.01 42.67-.01S34.85 7.26 33 12.09c-4.68-3.51-15.38-3.73-15.38-3.73s-2.74 10.34-.66 15.81c-5.15.45-14.3 5.96-14.3 5.96s5.95 8.63 10.25 11.12C8.09 42.45-.01 49.11-.01 49.11s7.27 7.82 12.1 9.67c-3.51 4.68-3.73 15.38-3.73 15.38s10.34 2.74 15.81.66c.45 5.15 5.96 14.3 5.96 14.3s8.63-5.95 11.12-10.25c1.2 4.82 7.86 12.92 7.86 12.92s7.82-7.27 9.67-12.1c4.68 3.51 15.38 3.73 15.38 3.73s2.74-10.34.66-15.81c5.15-.45 14.3-5.96 14.3-5.96s-5.95-8.63-10.25-11.12Zm-46.36 5.45L59.29 35.8 32.51 55.98Z" class="cls-3"/><path d="m73.64 49.8 4.76-1.19c2.89-.72 7.6-3.97 10.45-6.13-2.58-2.57-6.94-6.51-9.86-7.63l-2.44-.94 1.57-2.09c2.17-2.9 3.01-9.12 3.26-12.64-2.48-.53-7.42-1.4-11.17-.83-.72.11-1.35.27-1.89.47l-2.44.93-.23-2.61c-.27-3.11-2.86-8.38-4.61-11.58-2.87 2.14-7.29 5.77-8.78 8.35l-2.45 4.24-1.18-4.75c-.72-2.89-3.97-7.6-6.13-10.45-2.57 2.58-6.51 6.94-7.63 9.86l-.94 2.44-2.09-1.57c-2.9-2.17-9.12-3.01-12.65-3.26-.74 3.46-1.64 9.67-.36 13.06l.93 2.45-2.61.23c-.16.01-.32.03-.48.06-3.37.51-8.39 3.07-11.09 4.56 2.14 2.87 5.77 7.29 8.35 8.77L18.17 42l-4.75 1.18c-2.89.72-7.6 3.97-10.45 6.13 2.59 2.57 6.94 6.51 9.86 7.63l2.44.94-1.57 2.09c-2.17 2.9-3.01 9.12-3.26 12.64 2.48.53 7.43 1.39 11.17.83.72-.11 1.35-.27 1.89-.47l2.45-.93.23 2.61c.27 3.11 2.86 8.38 4.61 11.58 2.87-2.14 7.29-5.77 8.78-8.35l2.45-4.24 1.18 4.76c.72 2.89 3.97 7.6 6.13 10.45 2.57-2.59 6.51-6.94 7.63-9.86l.94-2.44 2.09 1.57c2.9 2.17 9.12 3.02 12.65 3.26.74-3.45 1.65-9.66.36-13.06l-.93-2.44 2.61-.23c.16-.01.32-.03.48-.06 3.37-.51 8.39-3.07 11.09-4.56-2.14-2.87-5.77-7.29-8.35-8.77l-4.25-2.45Zm-41.13 6.19 26.78-20.18-26.78 20.18Z" class="cls-1"/><path d="M78.87 50.53c4.82-1.2 12.92-7.86 12.92-7.86s-7.27-7.82-12.1-9.67c-8.76-3.48-16.19-.7-16.19-.7s4.82-3.99 4.11-15.34c-.45-5.15-5.96-14.3-5.96-14.3s-8.63 5.95-11.12 10.25C49.33 8.09 42.67-.01 42.67-.01S34.85 7.26 33 12.09c-3.48 8.76-.7 16.19-.7 16.19s-3.99-4.82-15.34-4.11c-5.15.45-14.3 5.96-14.3 5.96s5.95 8.63 10.25 11.12C8.09 42.45-.01 49.11-.01 49.11s7.27 7.82 12.1 9.67c8.76 3.48 16.19.7 16.19.7s-4.82 3.99-4.11 15.34c.45 5.15 5.96 14.3 5.96 14.3s8.63-5.95 11.12-10.25c1.2 4.82 7.86 12.92 7.86 12.92s7.82-7.27 9.67-12.1c3.48-8.76.7-16.19.7-16.19s3.99 4.82 15.34 4.11c5.15-.45 14.3-5.96 14.3-5.96s-5.95-8.63-10.25-11.12Zm-46.36 5.45L59.29 35.8 32.51 55.98Z" class="cls-1"/><path d="M78.87 50.53c4.82-1.2 12.92-7.86 12.92-7.86s-7.27-7.82-12.1-9.67c-8.76-3.48-16.19-.7-16.19-.7s4.82-3.99 4.11-15.34c-.45-5.15-5.96-14.3-5.96-14.3s-8.63 5.95-11.12 10.25C49.33 8.09 42.67-.01 42.67-.01S34.85 7.26 33 12.09c-3.48 8.76-.7 16.19-.7 16.19s-3.99-4.82-15.34-4.11c-5.15.45-14.3 5.96-14.3 5.96s5.95 8.63 10.25 11.12C8.09 42.45-.01 49.11-.01 49.11s7.27 7.82 12.1 9.67c8.76 3.48 16.19.7 16.19.7s-4.82 3.99-4.11 15.34c.45 5.15 5.96 14.3 5.96 14.3s8.63-5.95 11.12-10.25c1.2 4.82 7.86 12.92 7.86 12.92s7.82-7.27 9.67-12.1c3.48-8.76.7-16.19.7-16.19s3.99 4.82 15.34 4.11c5.15-.45 14.3-5.96 14.3-5.96s-5.95-8.63-10.25-11.12Zm-46.36 5.45L59.29 35.8 32.51 55.98Z" class="cls-3"/><path d="m78 52.03-3.71-2.14 4.16-1.04c3.01-.75 7.92-4.18 10.76-6.35-2.57-2.57-7.11-6.72-10.16-7.89-4.8-1.91-9.17-1.8-12-1.37-1.83.28-4.77 1.88-4.77 1.88l-1.54-2.66s5.77-5.21 5.14-15.35c-.28-3.23-3.01-8.74-4.78-11.92-2.87 2.13-7.52 5.91-9.07 8.6l-2.14 3.71-1.04-4.16c-.75-3.01-4.18-7.92-6.35-10.76-2.57 2.57-6.72 7.11-7.89 10.16-3.17 7.99.49 16.71.51 16.77l-2.66 1.54s-5.21-5.77-15.35-5.14c-.16.01-.33.03-.5.06-3.51.53-8.78 3.26-11.42 4.72 2.13 2.87 5.91 7.52 8.59 9.07l3.71 2.14-4.16 1.04c-3.01.75-7.92 4.18-10.76 6.35 2.57 2.57 7.11 6.72 10.16 7.89 4.8 1.91 9.17 1.8 11.99 1.37 1.83-.28 4.77-1.88 4.77-1.88l1.55 2.65s-5.79 5.23-5.15 15.36c.28 3.23 3.01 8.74 4.78 11.92 2.87-2.13 7.52-5.91 9.07-8.59l2.14-3.71 1.04 4.16c.75 3.01 4.18 7.92 6.35 10.76 2.58-2.57 6.72-7.12 7.89-10.16 3.17-7.99-.49-16.71-.51-16.77l2.66-1.54s5.21 5.77 15.35 5.14c.16-.01.33-.03.5-.06 3.51-.53 8.78-3.26 11.42-4.72-2.13-2.87-5.91-7.52-8.59-9.07Zm-45.5 3.95L59.28 35.8 32.5 55.98Z" class="cls-1"/><path d="M64.6 43.07c-1.56-10.33-11.19-17.44-21.52-15.88-10.33 1.56-17.44 11.19-15.88 21.52 1.56 10.33 11.19 17.44 21.52 15.88C59.05 63.03 66.16 53.4 64.6 43.07ZM32.51 55.98 59.29 35.8 32.51 55.98Z" class="cls-1"/><path d="M66.4 42.8c-1.71-11.32-12.27-19.12-23.6-17.41s-19.12 12.27-17.41 23.6c1.71 11.32 12.27 19.12 23.6 17.41 11.32-1.71 19.12-12.27 17.41-23.6ZM48.72 64.6c-10.33 1.56-19.97-5.55-21.52-15.88-1.56-10.33 5.55-19.97 15.88-21.52 10.33-1.56 19.97 5.55 21.52 15.88 1.56 10.33-5.55 19.97-15.88 21.52Z" class="cls-3"/><path d="M7.64 31.21c4.14 6.2 11.05 9.7 18.2 9.67.4-1.63 1.01-3.15 1.77-4.59a98.087 98.087 0 0 0-10.49-4.02c2.79.1 7 .8 11.6 2.14.71-1.07 1.52-2.06 2.41-2.97-6.92-4.53-16.1-4.87-23.48-.25ZM39.61 26.22c-.02-4.8.47-9.03 1.14-11.75.11 3.8.4 7.54.94 11.2 1.6-.33 3.24-.5 4.93-.44 2-6.87.54-14.47-4.28-20.16-6.48 5.83-8.68 14.74-6.24 22.64 1.12-.6 2.29-1.1 3.52-1.5ZM77.31 40.75c-3.8.11-7.54.4-11.2.94.33 1.6.5 3.24.44 4.93 6.87 2 14.47.54 20.16-4.28-5.83-6.48-14.74-8.68-22.64-6.24.6 1.12 1.1 2.29 1.5 3.52 4.8-.02 9.03.47 11.75 1.14ZM14.48 51.04c3.8-.11 7.54-.4 11.2-.94-.33-1.6-.5-3.24-.44-4.93-6.87-2-14.47-.54-20.16 4.28 5.83 6.48 14.74 8.68 22.64 6.24-.6-1.12-1.1-2.29-1.5-3.52-4.8.02-9.03-.47-11.75-1.14ZM65.95 50.9a20.03 20.03 0 0 1-1.77 4.59c3.37 1.52 6.86 2.86 10.49 4.02-2.79-.1-7-.8-11.6-2.14-.71 1.07-1.52 2.06-2.41 2.97 6.92 4.53 16.1 4.87 23.48.25-4.14-6.2-11.05-9.7-18.2-9.67ZM50.9 25.84c1.63.4 3.15 1.01 4.59 1.77 1.52-3.37 2.86-6.86 4.02-10.49-.1 2.79-.8 7-2.14 11.6 1.07.71 2.06 1.52 2.97 2.41 4.53-6.92 4.87-16.1.25-23.48-6.2 4.14-9.7 11.05-9.67 18.2ZM52.18 65.57c.02 4.8-.47 9.03-1.14 11.75-.11-3.8-.4-7.54-.94-11.2-1.6.33-3.24.5-4.93.44-2 6.87-.54 14.47 4.28 20.16 6.48-5.83 8.68-14.74 6.24-22.64-1.12.6-2.29 1.1-3.52 1.5ZM36.3 64.19a98.087 98.087 0 0 0-4.02 10.49c.1-2.79.8-7 2.14-11.6-1.07-.71-2.06-1.52-2.97-2.41-4.53 6.92-4.87 16.1-.25 23.48 6.2-4.14 9.7-11.05 9.67-18.2a20.03 20.03 0 0 1-4.59-1.77Z" class="cls-5"/><path d="M7.64 31.21c11.87 1.57 16.47 1.87 21.08 3.21.71-1.07 1.52-2.06 2.41-2.97-6.92-4.53-16.1-4.87-23.48-.25ZM39.61 26.22c-.02-4.8 1.14-11.75 1.14-11.75l1.58-9.4c-6.48 5.83-8.68 14.74-6.24 22.64 1.12-.6 2.29-1.1 3.52-1.5ZM5.08 49.46c4.28 2.67 16.94 1.18 20.6.65-.33-1.6-.5-3.24-.44-4.93-6.87-2-14.47-.54-20.16 4.28ZM55.49 27.6c1.52-3.37 5.53-11.73 5.09-19.96-6.2 4.14-9.7 11.05-9.67 18.2 1.63.4 3.15 1.01 4.59 1.77ZM65.95 50.9a20.03 20.03 0 0 1-1.77 4.59c3.37 1.52 14.61 6.31 19.96 5.09-4.14-6.2-11.05-9.7-18.2-9.67ZM86.71 42.33c-5.83-6.48-14.74-8.68-22.64-6.24.6 1.12 1.1 2.29 1.5 3.52 4.8-.02 4.41-.28 21.14 2.72ZM45.18 66.55c-2 6.87-.54 14.47 4.28 20.16 2.68-5.15 1.18-16.94.65-20.6-1.6.33-3.24.5-4.93.44ZM31.46 60.67c-4.53 6.92-4.87 16.1-.25 23.48.9-10.68 1.87-16.47 3.21-21.07-1.07-.71-2.06-1.52-2.97-2.41Z" class="cls-6"/><path d="M35.81 32.51c-7.39 5.57-8.87 16.08-3.3 23.48l26.78-20.18c-5.57-7.39-16.08-8.87-23.48-3.3Z" class="cls-4"/><path d="M59.28 35.8 32.5 55.98c5.57 7.39 16.08 8.87 23.48 3.3s8.87-16.08 3.3-23.48ZM62.19 65.49l5.44 9.25-7.39-7.78c.41 2.9.32 5.88-.29 8.8 3.5 2.94 6.74 3.22 11.34 3.83.68-4.58 1.31-7.78-.56-11.95-2.97-.22-5.86-.96-8.54-2.15ZM74.74 24.16l-7.78 7.39c2.9-.41 5.88-.32 8.8.29 2.94-3.5 3.22-6.74 3.83-11.34-4.58-.68-7.78-1.31-11.95.56-.22 2.97-.96 5.86-2.15 8.54l9.25-5.44ZM17.05 67.63l7.78-7.39c-2.9.41-5.88.32-8.8-.29-2.94 3.5-3.22 6.74-3.83 11.34 4.58.68 7.78 1.31 11.95-.56.22-2.97.96-5.86 2.15-8.54l-9.25 5.44ZM31.84 16.03c-3.5-2.94-6.74-3.22-11.34-3.83-.68 4.58-1.31 7.78.56 11.95 2.97.22 5.86.96 8.54 2.15l-5.44-9.25 7.39 7.78c-.41-2.9-.32-5.88.29-8.8Z" class="cls-4"/><path d="M35.81 32.51c-7.39 5.57-8.87 16.08-3.3 23.48l26.78-20.18c-5.57-7.39-16.08-8.87-23.48-3.3ZM79.59 20.51c-4.58-.68-7.78-1.31-11.95.56-.22 2.97-.96 5.86-2.15 8.54 0 0 11.29-5.8 14.11-9.09ZM16.03 59.95c-2.94 3.5-3.22 6.74-3.83 11.34 6.1-3.6 12.63-11.05 12.63-11.05-2.9.41-5.88.32-8.8-.29ZM20.51 12.2c-.68 4.58-1.31 7.78.56 11.95 2.97.22 5.86.96 8.54 2.15 0 0-6.51-12.56-9.09-14.11ZM60.23 66.96c.41 2.9.32 5.88-.29 8.8 3.5 2.94 6.74 3.22 11.34 3.83-2.78-5.08-11.05-12.63-11.05-12.63Z" class="cls-8"/></g><path d="m57.64 39.03-1.47-.88-5.73 4.32v.16l-.19 1.34.45.06c.98.14 1.67 1.05 1.53 2.03l-.75 5.34c-.14.98-1.05 1.67-2.03 1.53l-8.9-1.25a1.76 1.76 0 0 1-1.25-.81l-2.7 2.03c1.34 2.4 3.26 4.67 5.99 6.48.82.54 1.83.69 2.77.39 9.65-3.06 13.12-12.27 13.87-17.47.2-1.37-.5-2.63-1.59-3.28Z" style="fill:#4a148c"/><path d="M48.66 42.38a2.246 2.246 0 1 0-4.45-.63l-.19 1.34 4.45.63.19-1.34Z" class="cls-2"/><path d="m39.01 49.65.75-5.34c.14-.98 1.05-1.67 2.03-1.53l.45.06.19-1.34c.31-2.21 2.36-3.75 4.57-3.44s3.66 2.26 3.45 4.41l5.73-4.32-7.82-4.7a1.735 1.735 0 0 0-1.4-.2l-10.46 2.8c-1.22.33-2.24 1.34-2.43 2.72-.48 3.52-.25 9.13 2.53 14.13l2.7-2.03c-.23-.35-.34-.78-.28-1.22Z" class="cls-2"/></svg>