<svg id="Ebene_3" data-name="Ebene 3" xmlns="http://www.w3.org/2000/svg" viewBox="0 0 92.89 92.89"><defs><style>.cls-2,.cls-3{fill-rule:evenodd}.cls-2{fill:#4a148c}.cls-3{fill:#6a1b9a}</style></defs><g id="Flower_7_with_effect_and_spitz" data-name="Flower 7 with effect and spitz"><path d="M59.12 18.34c3-4 12.28-8.83 12.28-8.83s4.36 9.75 4.18 14.92C81.26 23 91.19 27 91.19 27s-1.52 10.6-5.57 14.82c4.57 2.43 10.83 11.08 10.83 11.08s-8.86 5.62-13.79 6.22c4 3 8.83 12.28 8.83 12.28s-9.75 4.36-14.92 4.18C78 81.26 74 91.19 74 91.19s-10.6-1.52-14.82-5.57C56.75 90.19 48.1 96.45 48.1 96.45s-5.62-8.86-6.22-13.79c-3 4-12.28 8.83-12.28 8.83s-4.36-9.75-4.18-14.92C19.74 78 9.81 74 9.81 74s1.52-10.59 5.57-14.81C10.81 56.75 4.55 48.1 4.55 48.1s8.86-5.62 13.79-6.22c-4-3-8.83-12.28-8.83-12.28s9.75-4.36 14.92-4.18C23 19.74 27 9.81 27 9.81s10.59 1.52 14.81 5.57C44.25 10.81 52.9 4.55 52.9 4.55s5.62 8.86 6.22 13.79Z" transform="translate(-3.55 -3.55)" style="fill-rule:evenodd;fill:#23074f;opacity:.75"/><path class="cls-2" d="M58.12 17.34c3-4 12.28-8.83 12.28-8.83s4.36 9.75 4.18 14.92C80.26 22 90.19 26 90.19 26s-1.52 10.6-5.57 14.82c4.57 2.43 10.83 11.08 10.83 11.08s-8.86 5.62-13.79 6.22c4 3 8.83 12.28 8.83 12.28s-9.75 4.36-14.92 4.18C77 80.26 73 90.19 73 90.19s-10.6-1.52-14.82-5.57C55.75 89.19 47.1 95.45 47.1 95.45s-5.62-8.86-6.22-13.79c-3 4-12.28 8.83-12.28 8.83s-4.36-9.75-4.18-14.92C18.74 77 8.81 73 8.81 73s1.52-10.59 5.57-14.81C9.81 55.75 3.55 47.1 3.55 47.1s8.86-5.62 13.79-6.22c-4-3-8.83-12.28-8.83-12.28s9.75-4.36 14.92-4.18C22 18.74 26 8.81 26 8.81s10.59 1.52 14.81 5.57C43.25 9.81 51.9 3.55 51.9 3.55s5.62 8.86 6.22 13.79Z" transform="translate(-3.55 -3.55)"/><path class="cls-3" d="M47.66 92.54c-1.8-3.09-4.45-8.16-4.82-11.12l-.59-4.86-3 3.91c-1.79 2.38-6.62 5.44-9.73 7.22-1.35-3.38-3.28-8.93-3.17-12l.14-2.69-2.49.65a9.63 9.63 0 0 1-1.93.23c-3.77.11-8.59-1.36-11-2.18.67-3.47 2.26-9.54 4.77-12.15l1.81-1.89-2.31-1.23c-2.75-1.46-6.6-5.91-8.85-8.77 3.09-1.8 8.16-4.45 11.12-4.82l4.86-.59-3.91-3c-2.38-1.79-5.44-6.62-7.22-9.73 2.86-1.14 8.16-3.08 11.56-3.17h.49l2.62.09-.66-2.44c-.86-3.52.79-9.57 1.95-12.91 3.47.67 9.54 2.26 12.15 4.77l1.89 1.81 1.23-2.31c1.47-2.76 5.91-6.6 8.77-8.85 1.8 3.09 4.45 8.16 4.82 11.12l.59 4.86 3-3.91c1.8-2.39 6.62-5.45 9.73-7.22 1.35 3.38 3.28 8.93 3.17 12L72.51 26l2.54-.63a9.63 9.63 0 0 1 1.95-.25c3.78-.11 8.59 1.36 11 2.18-.67 3.47-2.26 9.54-4.77 12.15l-1.81 1.89 2.31 1.23c2.76 1.47 6.6 5.91 8.85 8.77-3.09 1.8-8.16 4.45-11.12 4.82l-4.86.59 3.91 3c2.38 1.79 5.44 6.62 7.22 9.73-2.86 1.14-8.16 3.08-11.56 3.17h-.49L73 72.51l.62 2.54c.86 3.53-.79 9.58-2 12.91-3.47-.67-9.54-2.26-12.15-4.77l-1.89-1.81-1.23 2.31c-1.35 2.75-5.83 6.6-8.69 8.85Z" transform="translate(-3.55 -3.55)"/><path class="cls-3" d="M84.62 40.82a24.31 24.31 0 0 0-16-2.67s5.27-3.37 6-14.72c.18-5.17-4.18-14.92-4.18-14.92s-9.29 4.86-12.28 8.83c-.6-4.93-6.22-13.79-6.22-13.79s-8.69 6.26-11.12 10.83a24.31 24.31 0 0 0-2.67 16s-3.37-5.27-14.72-5.95c-5.17-.19-14.92 4.17-14.92 4.17s4.86 9.29 8.83 12.28c-4.93.6-13.79 6.22-13.79 6.22s6.26 8.65 10.83 11.08a24.31 24.31 0 0 0 16 2.67s-5.27 3.37-5.95 14.72c-.18 5.17 4.18 14.92 4.18 14.92s9.29-4.86 12.28-8.83c.6 4.93 6.22 13.79 6.22 13.79s8.65-6.26 11.08-10.83a24.31 24.31 0 0 0 2.67-16s3.37 5.27 14.72 6c5.17.18 14.92-4.18 14.92-4.18s-4.86-9.29-8.83-12.28c4.93-.6 13.79-6.22 13.79-6.22s-6.27-8.69-10.84-11.12Z" transform="translate(-3.55 -3.55)"/><path class="cls-2" d="M84.62 40.82a24.31 24.31 0 0 0-16-2.67s5.27-3.37 6-14.72c.18-5.17-4.18-14.92-4.18-14.92s-9.29 4.86-12.28 8.83c-.6-4.93-6.22-13.79-6.22-13.79s-8.69 6.26-11.12 10.83a24.31 24.31 0 0 0-2.67 16s-3.37-5.27-14.72-5.95c-5.17-.19-14.92 4.17-14.92 4.17s4.86 9.29 8.83 12.28c-4.93.6-13.79 6.22-13.79 6.22s6.26 8.65 10.83 11.08a24.31 24.31 0 0 0 16 2.67s-5.27 3.37-5.95 14.72c-.18 5.17 4.18 14.92 4.18 14.92s9.29-4.86 12.28-8.83c.6 4.93 6.22 13.79 6.22 13.79s8.65-6.26 11.08-10.83a24.31 24.31 0 0 0 2.67-16s3.37 5.27 14.72 6c5.17.18 14.92-4.18 14.92-4.18s-4.86-9.29-8.83-12.28c4.93-.6 13.79-6.22 13.79-6.22s-6.27-8.69-10.84-11.12Z" transform="translate(-3.55 -3.55)"/><path class="cls-3" d="M47.59 92.91c-1.81-3.08-4.62-8.38-5-11.46l-.52-4.25-2.57 3.42c-1.87 2.48-6.94 5.66-10 7.43-1.37-3.38-3.41-9.18-3.3-12.42.61-10.13 7-14.59 7-14.62l-1.28-2.81a20 20 0 0 1-5 1.28 23.24 23.24 0 0 1-11.74-2.82c-2.88-1.53-6.88-6.2-9.12-9.07 3.08-1.81 8.38-4.62 11.46-5l4.25-.52-3.39-2.57c-2.48-1.87-5.66-6.94-7.43-10 2.81-1.13 8.37-3.2 11.92-3.3h.5c10.14.61 14.58 6.93 14.61 7L40.8 32c0-.06-2.58-9.17 1.54-16.71 1.53-2.88 6.2-6.88 9.07-9.12 1.81 3.08 4.62 8.38 5 11.46l.52 4.25 2.58-3.42c1.87-2.48 6.94-5.66 10-7.43 1.37 3.38 3.41 9.18 3.3 12.42C72.24 33.51 65.92 38 65.88 38l1.2 2.82a20 20 0 0 1 5-1.28 23.24 23.24 0 0 1 11.74 2.82c2.88 1.53 6.88 6.2 9.12 9.07-3.08 1.81-8.38 4.62-11.46 5l-4.25.52 3.42 2.58c2.48 1.87 5.66 6.94 7.43 10-2.8 1.13-8.37 3.2-11.92 3.3h-.5c-10.14-.61-14.58-6.93-14.61-7l-2.82 1.2c0 .06 2.58 9.17-1.54 16.71-1.56 2.92-6.23 6.93-9.1 9.17Z" transform="translate(-3.55 -3.55)"/><path class="cls-3" d="M50 68.41A18.92 18.92 0 1 1 68.41 49 18.92 18.92 0 0 1 50 68.41Z" transform="translate(-3.55 -3.55)"/><path class="cls-2" d="M48.93 28.77a20.74 20.74 0 1 0 21.3 20.16 20.74 20.74 0 0 0-21.3-20.16ZM50 68.41A18.92 18.92 0 1 1 68.41 49 18.92 18.92 0 0 1 50 68.41Z" transform="translate(-3.55 -3.55)"/><path d="M56.91 30.2a21.78 21.78 0 0 1 11.82-16.88 21.81 21.81 0 0 1-3.1 23.28A20.93 20.93 0 0 0 63 33.85a51.71 51.71 0 0 0 3.55-11.26 94.45 94.45 0 0 1-5.27 9.92 20.46 20.46 0 0 0-4.37-2.31ZM30.2 42.09a20.46 20.46 0 0 1 2.31-4.34 96.35 96.35 0 0 0-9.92-5.27A51.71 51.71 0 0 1 33.85 36a20.93 20.93 0 0 1 2.75-2.66 21.81 21.81 0 0 0-23.28-3.1A21.78 21.78 0 0 0 30.2 42.09Zm15.46-12.88a51 51 0 0 1 2.56-11.52 96.5 96.5 0 0 0-.43 11.23 20.51 20.51 0 0 1 4.94.16 21.77 21.77 0 0 0-1.79-20.53A21.81 21.81 0 0 0 42 30.26a20.84 20.84 0 0 1 3.66-1.05Zm24.13 16.45a51 51 0 0 1 11.52 2.56 96.5 96.5 0 0 0-11.23-.43 20.51 20.51 0 0 1-.16 4.94 21.77 21.77 0 0 0 20.53-1.79A21.81 21.81 0 0 0 68.74 42a20.84 20.84 0 0 1 1.05 3.66Zm-1 11.25a20.46 20.46 0 0 1-2.31 4.34 94.45 94.45 0 0 0 9.92 5.27A52.15 52.15 0 0 1 65.15 63a21.51 21.51 0 0 1-2.75 2.65 21.81 21.81 0 0 0 23.28 3.1A21.78 21.78 0 0 0 68.8 56.91ZM53.34 69.79a51 51 0 0 1-2.56 11.52 96.5 96.5 0 0 0 .43-11.23 20.51 20.51 0 0 1-4.94-.16 21.77 21.77 0 0 0 1.79 20.53A21.81 21.81 0 0 0 57 68.74a20.84 20.84 0 0 1-3.66 1.05Zm-15.59-3.3a96.35 96.35 0 0 0-5.27 9.92A51.71 51.71 0 0 1 36 65.15a20.93 20.93 0 0 1-2.66-2.75 21.81 21.81 0 0 0-3.1 23.28A21.78 21.78 0 0 0 42.09 68.8a20.46 20.46 0 0 1-4.34-2.31Zm-8.54-13.15a51 51 0 0 1-11.52-2.56 96.5 96.5 0 0 0 11.23.43 20.51 20.51 0 0 1 .16-4.94 21.77 21.77 0 0 0-20.53 1.79A21.81 21.81 0 0 0 30.26 57a20.84 20.84 0 0 1-1.05-3.66Z" transform="translate(-3.55 -3.55)" style="fill:#d81b60"/><path d="M56.91 30.2a21.78 21.78 0 0 1 11.82-16.88c-.56 8.22-5.55 16-7.48 19.19a20.46 20.46 0 0 0-4.34-2.31ZM33.85 36a20.93 20.93 0 0 1 2.75-2.66 21.81 21.81 0 0 0-23.28-3.1c11.59 3.03 16.12 3.89 20.53 5.76Zm11.81-6.82a86.45 86.45 0 0 1 2.56-11.52l2.72-9.14A21.81 21.81 0 0 0 42 30.26a20.84 20.84 0 0 1 3.66-1.05Zm24.13 16.48c4.77.56 4.42.26 20.66 5.28A21.81 21.81 0 0 0 68.74 42a20.84 20.84 0 0 1 1.05 3.66Zm-1 11.25a20.46 20.46 0 0 1-2.31 4.34c3.15 1.93 13.73 8 19.19 7.48A21.78 21.78 0 0 0 68.8 56.91ZM51.21 70.08a20.51 20.51 0 0 1-4.94-.16 21.77 21.77 0 0 0 1.79 20.53c3.29-4.79 3.24-16.67 3.15-20.37ZM36 65.15a20.93 20.93 0 0 1-2.66-2.75 21.81 21.81 0 0 0-3.1 23.28c2.23-10.49 3.89-16.12 5.76-20.53Zm-7.08-13.94a20.51 20.51 0 0 1 .16-4.94 21.77 21.77 0 0 0-20.53 1.79c3.92 3.17 16.67 3.24 20.37 3.15Z" transform="translate(-3.55 -3.55)" style="fill:#ff4081"/><path d="M53.19 33.43h.08c-.86 2.15-1.68 4.46-2.57 7.25-.19.61-.38 1.22-.56 1.83l-.06.19a19.84 19.84 0 0 1-4.71-2.45c.36-.44.71-.85 1.06-1.23a32.44 32.44 0 0 1 3.7-3.37 36.21 36.21 0 0 1 3.06-2.22Zm-8.49 31.9c.34-2.29.78-4.7 1.41-7.55.12-.6.26-1.2.41-1.79l.06-.27a19.12 19.12 0 0 0-4.06-.3c-.42 0-.83 0-1.25.07q.13.84.3 1.59a33 33 0 0 0 1.53 4.77 34.75 34.75 0 0 0 1.55 3.38Zm4.17-1.93a33.31 33.31 0 0 0 3.7-3.4c.35-.38.7-.78 1.06-1.23a20.22 20.22 0 0 0-4.71-2.45l-.07.24c-.18.59-.36 1.19-.55 1.78-.89 2.77-1.7 5.09-2.57 7.25l.11-.07a35.49 35.49 0 0 0 3.03-2.12Zm5.43-29.73c-.34 2.28-.79 4.69-1.41 7.55-.13.61-.27 1.21-.41 1.81l-.06.25a19.12 19.12 0 0 0 4.06.3c.42 0 .84 0 1.25-.07-.09-.56-.19-1.09-.31-1.59a31 31 0 0 0-1.52-4.77 35.26 35.26 0 0 0-1.56-3.41Zm11.26 20.66c-2-.29-4.23-.68-6.7-1.21A18.78 18.78 0 0 1 57 57q-.57.85-1.17 1.65a25.51 25.51 0 0 1 3.73 4.27 16.69 16.69 0 0 0 6-8.59ZM44.41 41.42c-.38.52-.71 1-1 1.47a17 17 0 0 0-1.57 3.35c2.38.53 4.7 1.11 6.72 1.63q.49-1.78 1-3.57a18.17 18.17 0 0 1-5.15-2.88Zm13.35 9.09a16.56 16.56 0 0 0 .32-3.68c0-.56-.06-1.14-.13-1.77a19.16 19.16 0 0 1-2.26.2A17.84 17.84 0 0 1 52 45c-.29 1.2-.59 2.39-.89 3.58 2.01.53 4.31 1.19 6.65 1.93Zm-14.45 3.23A17.84 17.84 0 0 1 47 54c.29-1.2.58-2.39.89-3.58-2-.56-4.3-1.21-6.63-1.95a16.52 16.52 0 0 0-.32 3.68c0 .56.06 1.14.13 1.77a19.35 19.35 0 0 1 2.24-.18Zm12.28 2.37a17 17 0 0 0 1.57-3.35c-2.39-.53-4.71-1.11-6.72-1.63q-.49 1.78-1 3.57a18.17 18.17 0 0 1 5.17 2.88c.39-.52.69-1 .98-1.47ZM33.44 44.67c2.06.29 4.2.68 6.7 1.21A18.78 18.78 0 0 1 42 42c.38-.56.77-1.12 1.17-1.65a25.31 25.31 0 0 1-3.74-4.29 16.65 16.65 0 0 0-5.99 8.61Zm.63 11.42a25 25 0 0 1 5.38-1.84q-.12-1-.18-2a18.26 18.26 0 0 1 .32-4.25c-2.4-.79-4.5-1.54-6.42-2.31a16.78 16.78 0 0 0 .9 10.44Zm20.84 3.68c-.44.51-.85.94-1.25 1.32a30.43 30.43 0 0 1-6.81 5 16.73 16.73 0 0 0 11.95-2.64 33.43 33.43 0 0 0-3.89-3.68ZM40.1 57.46c-.15-.54-.29-1.12-.42-1.78-.9.13-1.78.31-2.61.51s-1.64.43-2.6.73a16.75 16.75 0 0 0 9.05 8.23 31 31 0 0 1-3.42-7.69Zm34-30a25.69 25.69 0 0 1-3.18 8.22l9.85-4.27-8.62 6.39a25.4 25.4 0 0 1 8.7 1.35c3.34-3.11 4-6.3 5.18-10.78-4.46-1.2-7.55-2.21-11.92-.87ZM63.28 70.93l4.27 9.85-6.39-8.62a25.4 25.4 0 0 1-1.35 8.7c3.11 3.34 6.3 4 10.78 5.18 1.24-4.47 2.25-7.56.91-11.93a25.69 25.69 0 0 1-8.22-3.18Zm1.65-28a24.8 24.8 0 0 1-5.38 1.84q.12 1 .18 2a18.26 18.26 0 0 1-.32 4.23c2.4.78 4.5 1.54 6.42 2.31a16.68 16.68 0 0 0-.9-10.4Zm-6-1.37c.15.54.29 1.12.42 1.78.9-.13 1.78-.31 2.61-.51s1.78-.47 2.61-.74c-.16-.32-.31-.65-.5-1a16.59 16.59 0 0 0-8.57-7.27 30.88 30.88 0 0 1 3.4 7.72Zm-14.84-2.33a18.12 18.12 0 0 1 1.25-1.32 30.28 30.28 0 0 1 6.83-5 16.78 16.78 0 0 0-3.17-.2A16.56 16.56 0 0 0 41.11 35c-.32.18-.62.38-.92.59a34.34 34.34 0 0 0 3.9 3.64Zm-12.64-21 6.39 8.62a25.4 25.4 0 0 1 1.35-8.7c-3.11-3.34-6.3-4-10.78-5.18-1.24 4.47-2.25 7.56-.91 11.93a25.69 25.69 0 0 1 8.22 3.18Zm-4.61 42.93a25.4 25.4 0 0 1-8.7-1.35c-3.34 3.11-4 6.3-5.18 10.78 4.47 1.24 7.56 2.25 11.93.91a25.69 25.69 0 0 1 3.18-8.22l-9.85 4.27Z" transform="translate(-3.55 -3.55)" style="fill:#ff8a65"/><path d="M53.19 33.43h.08c-.86 2.15-1.68 4.46-2.57 7.25-.19.61-.38 1.22-.56 1.83l-.06.19a19.84 19.84 0 0 1-4.71-2.45c.36-.44.71-.85 1.06-1.23a32.44 32.44 0 0 1 3.7-3.37 36.21 36.21 0 0 1 3.06-2.22Zm-8.49 31.9c.34-2.29.78-4.7 1.41-7.55.12-.6.26-1.2.41-1.79l.06-.27a19.12 19.12 0 0 0-4.06-.3c-.42 0-.83 0-1.25.07q.13.84.3 1.59a33 33 0 0 0 1.53 4.77 34.75 34.75 0 0 0 1.55 3.38Zm-.29-23.91c-.38.52-.71 1-1 1.47a17 17 0 0 0-1.57 3.35c2.38.53 4.7 1.11 6.72 1.63q.49-1.78 1-3.57a18.17 18.17 0 0 1-5.15-2.88Zm-1.1 12.32A17.84 17.84 0 0 1 47 54c.29-1.2.58-2.39.89-3.58-2-.56-4.3-1.21-6.63-1.95a16.52 16.52 0 0 0-.32 3.68c0 .56.06 1.14.13 1.77a19.35 19.35 0 0 1 2.24-.18Zm-9.87-9.07c2.06.29 4.2.68 6.7 1.21A18.78 18.78 0 0 1 42 42c.38-.56.77-1.12 1.17-1.65a25.31 25.31 0 0 1-3.74-4.29 16.65 16.65 0 0 0-5.99 8.61Zm.63 11.42a25 25 0 0 1 5.38-1.84q-.12-1-.18-2a18.26 18.26 0 0 1 .32-4.25c-2.4-.79-4.5-1.54-6.42-2.31a16.78 16.78 0 0 0 .9 10.44Zm6 1.37c-.15-.54-.29-1.12-.42-1.78-.9.13-1.78.31-2.61.51s-1.64.43-2.6.73a16.75 16.75 0 0 0 9.05 8.23 31 31 0 0 1-3.39-7.69Zm34-30a25.69 25.69 0 0 1-3.18 8.22S82.84 31.33 86 28.41c-4.43-1.24-7.52-2.25-11.89-.91Zm-13 44.66a25.4 25.4 0 0 1-1.35 8.7c3.11 3.34 6.3 4 10.78 5.18-2.05-5.34-9.34-13.84-9.34-13.84ZM44.09 39.23a18.12 18.12 0 0 1 1.25-1.32 30.28 30.28 0 0 1 6.83-5 16.78 16.78 0 0 0-3.17-.2A16.56 16.56 0 0 0 41.11 35c-.32.18-.62.38-.92.59a34.34 34.34 0 0 0 3.9 3.64ZM28.41 13c-1.24 4.47-2.25 7.56-.91 11.93a25.69 25.69 0 0 1 8.22 3.18S30.78 14.81 28.41 13Zm-1.57 48.2a25.4 25.4 0 0 1-8.7-1.35c-3.34 3.11-4 6.3-5.18 10.78 6.49-2.87 13.88-9.47 13.88-9.47Z" transform="translate(-3.55 -3.55)" style="fill:#ffab91"/></g></svg>